<?xml version="1.0" encoding="utf-8"?>
<!-- Generator: Adobe Illustrator 16.0.0, SVG Export Plug-In . SVG Version: 6.00 Build 0)  -->
<!DOCTYPE svg PUBLIC "-//W3C//DTD SVG 1.1//EN" "http://www.w3.org/Graphics/SVG/1.1/DTD/svg11.dtd" [
	<!ENTITY ns_extend "http://ns.adobe.com/Extensibility/1.0/">
	<!ENTITY ns_ai "http://ns.adobe.com/AdobeIllustrator/10.0/">
	<!ENTITY ns_graphs "http://ns.adobe.com/Graphs/1.0/">
	<!ENTITY ns_vars "http://ns.adobe.com/Variables/1.0/">
	<!ENTITY ns_imrep "http://ns.adobe.com/ImageReplacement/1.0/">
	<!ENTITY ns_sfw "http://ns.adobe.com/SaveForWeb/1.0/">
	<!ENTITY ns_custom "http://ns.adobe.com/GenericCustomNamespace/1.0/">
	<!ENTITY ns_adobe_xpath "http://ns.adobe.com/XPath/1.0/">
]>
<svg version="1.1" id="Layer_1" xmlns:x="&ns_extend;" xmlns:i="&ns_ai;" xmlns:graph="&ns_graphs;"
	 xmlns="http://www.w3.org/2000/svg" xmlns:xlink="http://www.w3.org/1999/xlink" x="0px" y="0px" width="238.2px" height="111.7px"
	 viewBox="0 0 238.2 111.7" enable-background="new 0 0 238.2 111.7" xml:space="preserve">
<metadata>
	<sfw  xmlns="&ns_sfw;">
		<slices></slices>
		<sliceSourceBounds  width="238.2" height="111.7" x="0" y="0" bottomLeftOrigin="true"></sliceSourceBounds>
	</sfw>
</metadata>
<g>
	<defs>
		<rect id="SVGID_1_" width="238.2" height="111.7"/>
	</defs>
	<clipPath id="SVGID_2_">
		<use xlink:href="#SVGID_1_"  overflow="visible"/>
	</clipPath>
	<path clip-path="url(#SVGID_2_)" fill="#221E1F" d="M238.2,37.2c-32.9-0.6-51.2,4.2-73.8,21.5c14.9,17.9,25.6,36.4,34.2,50.2
		C213.2,71.8,224.7,55.4,238.2,37.2 M163.1,59.7c0.4-0.3,0.8-0.7,1.3-1C142.9,32.7,112.6,7.8,67.7,0c10.9,15.3,33.7,75.5,43.7,111.7
		C128.5,97.4,153.8,68.7,163.1,59.7 M46.1,64C35.3,57.5,12.4,54.1,0,54.9c9.3,11.2,24.9,31,32.7,47.9C36.1,94.1,43.9,71.6,46.1,64
		 M90.2,50.4C75.9,39.7,48,35,27.8,36.3c17.3,18.4,42.4,69.9,44.9,75.3C80.1,96.7,89,58.3,90.2,50.4"/>
</g>
</svg>
