<?xml version="1.0" standalone="no"?>
<!DOCTYPE svg PUBLIC "-//W3C//DTD SVG 20010904//EN"
 "http://www.w3.org/TR/2001/REC-SVG-20010904/DTD/svg10.dtd">
<svg version="1.0" xmlns="http://www.w3.org/2000/svg"
 width="2307.000000pt" height="2307.000000pt" viewBox="0 0 2307.000000 2307.000000"
 preserveAspectRatio="xMidYMid meet">
<metadata>
Created by potrace 1.11, written by Peter Selinger 2001-2013
</metadata>
<g transform="translate(0.000000,2307.000000) scale(0.100000,-0.100000)"
fill="#000000" stroke="none">
<path d="M11387 22704 c-1 -1 -99 -4 -217 -8 -118 -4 -235 -9 -260 -11 -25 -2
-88 -6 -140 -10 -52 -3 -111 -8 -130 -9 -19 -2 -73 -7 -120 -10 -47 -4 -98 -9
-115 -11 -16 -2 -59 -6 -95 -10 -36 -3 -76 -8 -90 -10 -14 -2 -49 -7 -79 -10
-30 -4 -61 -8 -70 -10 -9 -1 -45 -6 -81 -10 -36 -3 -72 -8 -80 -10 -8 -2 -35
-7 -60 -10 -43 -6 -247 -40 -300 -51 -14 -3 -38 -7 -55 -9 -41 -6 -126 -23
-205 -40 -36 -8 -110 -24 -165 -35 -685 -147 -1536 -428 -2148 -709 -37 -17
-70 -31 -72 -31 -3 0 -111 -52 -240 -115 -129 -63 -236 -113 -238 -112 -1 1
-15 -7 -32 -19 -16 -11 -55 -33 -85 -48 -186 -95 -577 -322 -775 -450 -193
-125 -260 -171 -263 -178 -2 -4 -8 -8 -12 -8 -10 0 -264 -179 -425 -299 -87
-64 -431 -336 -445 -351 -3 -3 -32 -27 -65 -55 -33 -27 -76 -64 -95 -81 -19
-17 -78 -69 -130 -115 -153 -135 -202 -181 -455 -434 -253 -253 -303 -305
-456 -476 -126 -142 -126 -142 -273 -319 -149 -180 -129 -156 -236 -295 -47
-61 -88 -114 -93 -120 -8 -10 -122 -167 -155 -214 -9 -12 -31 -42 -48 -65
-108 -146 -422 -637 -523 -816 -23 -41 -50 -88 -60 -105 -10 -16 -35 -61 -56
-100 -21 -38 -57 -104 -80 -146 -44 -80 -242 -479 -290 -584 -51 -112 -175
-396 -175 -401 0 -2 -9 -26 -21 -52 -31 -69 -86 -213 -187 -487 -57 -154 -179
-540 -227 -715 -44 -162 -77 -284 -81 -303 -2 -10 -6 -27 -9 -37 -6 -19 -13
-48 -21 -90 -2 -14 -7 -31 -10 -39 -6 -19 -81 -366 -88 -411 -3 -19 -14 -82
-25 -140 -20 -104 -45 -248 -56 -325 -3 -22 -7 -53 -10 -70 -9 -59 -16 -111
-20 -153 -3 -23 -7 -55 -9 -70 -2 -15 -7 -52 -11 -82 -3 -30 -8 -71 -10 -90
-3 -19 -7 -64 -10 -100 -3 -36 -7 -81 -10 -100 -3 -31 -10 -112 -20 -240 -4
-50 -15 -269 -21 -400 -5 -127 -5 -679 1 -800 13 -299 15 -331 31 -520 19
-219 39 -423 49 -480 2 -14 7 -50 10 -80 3 -30 8 -62 10 -70 2 -8 7 -40 10
-70 3 -30 8 -62 10 -70 2 -8 7 -35 10 -60 8 -60 13 -91 30 -185 8 -44 16 -91
19 -105 4 -21 51 -262 61 -310 4 -20 55 -241 61 -262 2 -10 6 -26 8 -36 69
-305 216 -793 355 -1180 41 -113 160 -420 186 -477 7 -16 32 -75 55 -130 23
-55 56 -129 72 -165 17 -36 48 -103 70 -150 153 -329 486 -946 589 -1092 11
-14 19 -29 19 -32 0 -17 341 -527 460 -688 19 -26 51 -68 70 -95 19 -26 38
-52 43 -58 378 -495 639 -796 1047 -1204 396 -397 795 -743 1210 -1050 69 -51
132 -98 140 -104 159 -127 738 -499 1065 -684 260 -147 740 -389 960 -483 27
-12 66 -28 85 -37 19 -8 49 -21 65 -28 185 -82 504 -204 770 -295 122 -42 412
-135 455 -145 8 -3 38 -11 65 -19 172 -50 607 -161 708 -180 12 -2 58 -12 102
-21 44 -9 89 -19 100 -21 19 -4 194 -37 260 -49 52 -9 400 -62 465 -70 19 -2
53 -7 75 -9 22 -3 58 -8 80 -11 49 -6 108 -12 200 -20 39 -3 84 -8 100 -10 17
-2 71 -7 120 -10 50 -4 110 -8 135 -11 310 -26 1267 -26 1530 0 19 2 78 7 130
10 92 7 152 12 235 21 256 28 314 35 345 40 14 3 45 7 70 10 72 8 121 15 180
25 53 9 83 14 160 26 19 3 67 12 105 19 39 8 86 16 105 19 19 3 112 22 205 41
94 20 179 38 190 40 61 13 440 109 499 126 38 12 76 22 85 24 31 6 347 104
471 145 408 137 788 288 1225 490 113 52 420 207 550 278 172 93 428 240 495
283 14 9 75 47 135 85 187 115 528 346 660 447 6 4 69 51 140 105 183 137 471
368 532 426 12 12 28 26 35 31 10 8 115 100 194 170 222 197 603 579 809 810
44 49 89 99 101 111 11 12 30 33 41 47 20 26 110 131 128 151 6 6 58 70 115
141 58 72 107 132 110 135 3 3 17 21 30 40 13 19 27 37 30 40 44 36 472 647
610 870 18 30 63 102 98 160 70 113 241 412 314 550 103 191 358 717 358 736
0 3 16 38 35 78 19 41 35 78 35 84 0 5 6 22 14 38 122 255 406 1080 488 1419
5 22 11 47 13 55 3 8 11 44 20 80 8 36 20 76 25 90 5 14 11 39 14 55 2 17 13
68 25 115 12 47 23 96 26 110 3 14 9 48 15 75 6 28 12 59 14 70 2 11 13 65 25
120 11 55 23 118 26 140 4 22 9 54 12 70 3 17 7 39 8 50 3 19 21 131 30 185
13 77 23 151 31 215 3 28 7 61 9 75 11 80 15 111 20 165 3 33 8 76 10 95 2 19
7 64 10 100 3 36 7 85 9 110 4 46 16 205 22 295 20 320 20 981 -1 1275 -2 25
-6 94 -9 155 -4 60 -9 125 -11 145 -2 19 -7 67 -10 107 -5 74 -11 132 -20 193
-3 19 -7 60 -10 90 -3 30 -7 70 -10 88 -2 18 -9 69 -15 115 -17 127 -20 144
-41 272 -11 66 -22 134 -25 150 -11 72 -67 357 -84 430 -10 45 -21 92 -23 105
-8 43 -86 362 -102 415 -8 28 -37 131 -66 230 -143 505 -344 1043 -595 1593
-98 214 -377 754 -410 793 -8 8 -14 19 -14 22 0 4 -39 73 -86 154 -274 468
-675 1041 -1002 1432 -151 181 -274 322 -437 500 -94 104 -529 537 -644 641
-57 52 -109 100 -115 105 -6 6 -63 55 -126 109 -63 54 -127 109 -142 122 -48
42 -230 187 -323 259 -49 38 -92 72 -95 75 -3 4 -75 57 -160 118 -85 61 -160
116 -166 121 -32 26 -450 301 -584 383 -977 599 -2018 1037 -3120 1313 -118
30 -226 56 -240 59 -14 3 -65 14 -115 25 -49 11 -103 22 -120 25 -16 3 -86 17
-155 30 -138 27 -337 62 -415 72 -27 3 -58 8 -69 10 -10 2 -44 6 -75 10 -31 3
-58 8 -61 9 -3 2 -39 6 -80 10 -41 4 -77 8 -80 10 -3 2 -42 6 -88 10 -45 3
-90 8 -100 10 -10 2 -58 6 -108 10 -49 4 -100 8 -113 10 -13 2 -71 7 -130 10
-58 4 -131 8 -161 11 -121 8 -795 24 -803 18z m-2081 -5197 c27 -18 100 -69
162 -112 62 -44 121 -84 130 -90 9 -5 19 -13 22 -16 3 -3 79 -57 170 -120 91
-63 197 -137 235 -164 39 -27 72 -52 73 -57 2 -4 9 -8 16 -8 7 0 21 -9 31 -20
10 -11 24 -20 31 -20 7 0 14 -4 16 -8 2 -4 41 -34 88 -67 124 -85 143 -99 158
-112 7 -7 17 -13 22 -13 5 0 15 -6 22 -13 27 -26 116 -87 127 -87 6 0 11 -4
11 -8 0 -5 24 -24 53 -42 46 -30 123 -84 152 -108 56 -45 234 -160 240 -154 5
4 6 2 2 -3 -3 -6 22 -29 56 -52 68 -46 140 -96 268 -187 46 -33 84 -58 85 -55
0 2 8 -4 18 -14 10 -10 46 -36 80 -59 33 -23 63 -45 64 -50 2 -4 9 -8 17 -8 7
0 18 -7 25 -15 7 -8 17 -12 24 -8 6 3 8 3 4 -2 -4 -4 115 -93 265 -197 150
-105 280 -197 290 -206 9 -8 17 -11 17 -6 0 5 4 4 8 -2 10 -16 161 -124 173
-124 5 0 9 -3 9 -7 0 -5 21 -21 48 -38 26 -16 49 -32 52 -35 8 -9 110 -80 115
-80 3 0 13 -7 23 -16 16 -14 167 -121 317 -224 36 -25 76 -53 88 -63 11 -10
37 -28 57 -39 19 -12 37 -25 40 -28 3 -3 41 -31 85 -61 44 -30 82 -57 83 -61
2 -5 8 -8 13 -8 6 0 15 -5 22 -11 7 -6 50 -37 97 -70 47 -32 90 -62 95 -67 6
-4 48 -34 95 -67 47 -32 101 -70 121 -84 110 -79 322 -227 337 -236 9 -5 25
-18 36 -27 11 -10 28 -20 38 -24 10 -3 18 -10 18 -16 0 -6 3 -9 6 -6 3 4 14
-1 24 -10 26 -23 34 -29 125 -92 44 -30 89 -62 99 -72 11 -10 24 -18 29 -18 4
0 14 -6 22 -12 7 -7 63 -48 125 -91 61 -44 109 -84 107 -90 -5 -17 -69 -58
-372 -239 -148 -88 -275 -166 -280 -172 -6 -6 -15 -12 -20 -13 -12 -2 -248
-143 -255 -152 -3 -3 -18 -14 -35 -23 -37 -20 -43 -49 -17 -85 11 -16 77 -125
148 -243 70 -118 132 -216 136 -218 4 -2 8 -8 8 -14 0 -10 110 -199 121 -208
3 -3 8 -10 10 -16 2 -6 94 -160 204 -342 110 -183 205 -340 210 -350 6 -9 31
-53 57 -97 80 -137 145 -297 162 -395 3 -19 9 -48 13 -65 12 -57 10 -290 -3
-367 -19 -106 -66 -250 -113 -339 -50 -97 -63 -120 -79 -137 -7 -8 -19 -26
-26 -40 -8 -15 -26 -38 -40 -51 -14 -14 -26 -28 -26 -32 0 -4 -29 -38 -65 -74
-36 -36 -65 -70 -65 -75 0 -6 -3 -9 -7 -8 -5 2 -21 -9 -38 -24 -16 -15 -41
-36 -55 -47 -14 -11 -30 -25 -36 -30 -6 -5 -114 -70 -240 -146 -126 -75 -242
-147 -259 -159 -16 -13 -59 -39 -95 -60 -36 -20 -72 -41 -80 -46 -31 -19 -277
-159 -325 -185 -27 -15 -57 -34 -66 -41 -8 -8 -20 -14 -25 -14 -5 0 -45 -22
-88 -48 l-80 -48 0 -1797 0 -1797 -2203 0 -2203 0 0 761 c0 418 -3 758 -7 756
-14 -9 -256 -21 -403 -21 -126 1 -276 8 -375 19 -120 12 -157 17 -205 25 -30
5 -71 12 -90 15 -19 2 -57 10 -85 16 -27 6 -62 12 -76 15 -14 3 -77 18 -140
35 -63 16 -121 31 -129 34 -8 2 -16 4 -17 5 -2 2 -6 3 -10 4 -5 2 -28 8 -53
16 -25 7 -49 15 -55 16 -25 7 -181 66 -246 93 -40 17 -75 28 -80 26 -4 -3 -9
-1 -11 3 -1 4 -68 40 -148 79 -80 39 -174 88 -210 108 -79 46 -273 167 -280
175 -3 3 -23 17 -45 30 -22 13 -42 27 -45 30 -15 17 -108 79 -114 75 -3 -3 -4
-2 -1 1 2 4 -28 32 -68 62 -40 31 -77 61 -83 67 -6 5 -35 30 -64 55 -29 25
-62 53 -74 63 -11 10 -48 44 -80 75 -33 31 -63 56 -68 54 -4 -1 -7 2 -6 6 4
11 -63 78 -74 74 -4 -1 -7 2 -6 6 2 5 -23 35 -54 68 -31 32 -65 69 -75 80 -10
12 -38 45 -63 74 -25 29 -53 62 -63 74 -10 11 -31 36 -45 55 -15 19 -36 46
-48 60 -94 118 -264 356 -264 371 0 6 -3 10 -7 10 -5 0 -21 23 -38 50 -16 28
-33 50 -39 50 -5 0 -7 3 -3 6 3 3 -14 37 -39 75 -24 38 -44 71 -44 74 0 2 -14
28 -31 57 -37 62 -149 283 -149 293 0 4 -9 19 -19 33 -10 15 -19 31 -18 35 0
5 -12 34 -26 65 -40 89 -52 119 -97 237 -23 61 -45 119 -50 130 -21 51 -106
329 -126 410 -4 17 -8 35 -10 40 -1 6 -4 21 -7 35 -3 14 -10 43 -15 65 -6 22
-14 56 -17 75 -3 19 -8 42 -11 51 -2 10 -7 30 -9 45 -2 16 -6 38 -8 49 -4 17
-13 75 -23 140 -1 11 -5 45 -9 75 -3 30 -8 69 -10 85 -18 128 -26 623 -11 775
9 99 24 234 31 280 12 75 28 169 45 255 6 28 12 59 14 70 45 227 169 604 300
908 9 20 14 37 11 37 -3 0 3 9 13 20 9 12 16 23 15 25 -4 9 138 285 209 408
131 225 245 389 426 615 42 53 59 72 125 146 34 38 64 75 67 83 3 8 8 13 10
12 3 -2 30 24 60 56 30 33 63 66 73 73 9 7 15 18 11 23 -3 5 -2 8 3 7 5 -2 44
31 87 72 115 110 115 109 196 180 41 35 82 71 91 80 9 8 31 26 49 40 19 14 44
34 56 45 12 11 32 27 44 35 12 8 64 47 115 85 149 111 312 219 518 343 43 26
90 55 105 64 15 9 42 25 60 34 17 9 32 20 32 25 0 5 3 8 8 7 7 -3 202 110 212
122 3 3 20 12 38 19 17 8 32 17 32 22 0 5 7 9 15 9 8 0 15 5 15 10 0 6 5 10
12 10 12 0 109 59 119 73 3 5 10 9 15 9 17 1 54 21 54 30 0 4 4 8 9 8 9 0 180
99 191 110 3 3 25 16 50 29 25 14 47 27 50 30 3 4 16 12 30 19 14 7 43 23 65
37 22 14 47 28 55 32 8 4 17 9 20 12 9 11 231 141 240 141 5 0 10 4 12 8 2 5
64 44 138 87 74 44 137 82 140 85 3 3 26 17 53 30 26 14 47 28 47 32 0 5 4 8
9 8 5 0 141 79 302 176 162 98 308 185 324 194 17 10 98 59 180 109 83 50 155
91 161 91 7 0 34 -15 60 -33z m7880 -1499 c16 -7 41 -26 56 -43 74 -79 80
-188 17 -276 -11 -16 -17 -33 -14 -39 3 -5 2 -10 -3 -10 -12 0 -53 -76 -45
-84 3 -3 1 -6 -5 -6 -6 0 -17 -12 -25 -27 -7 -16 -64 -117 -125 -226 -62 -110
-112 -203 -112 -208 0 -5 -4 -9 -9 -9 -5 0 -11 -8 -14 -17 -5 -16 -19 -41 -95
-175 -11 -20 -18 -39 -15 -42 4 -3 2 -6 -4 -6 -5 0 -22 -24 -38 -52 -15 -29
-55 -100 -88 -158 -33 -58 -60 -110 -60 -117 0 -7 -2 -11 -5 -8 -7 6 -51 -78
-45 -87 2 -5 0 -8 -6 -8 -9 0 -120 -194 -123 -215 0 -5 -6 -14 -13 -20 -7 -5
-31 -46 -55 -90 -23 -44 -46 -84 -50 -90 -4 -5 -23 -39 -43 -75 -19 -36 -63
-114 -97 -175 -34 -60 -74 -132 -89 -160 -14 -27 -28 -52 -32 -55 -10 -8 -60
-109 -57 -116 2 -3 -5 -10 -14 -15 -10 -6 -18 -19 -18 -29 0 -11 -4 -20 -9
-20 -5 0 -13 -9 -16 -21 -4 -12 -23 -38 -42 -60 -64 -71 -175 -86 -260 -37
-50 29 -54 34 -82 94 -17 39 -22 64 -20 105 2 30 6 56 9 59 5 5 255 447 328
580 16 30 95 170 174 311 80 141 148 263 152 270 3 8 17 32 30 54 13 22 34 60
48 85 14 25 87 155 163 289 76 134 138 250 138 257 0 7 3 11 6 9 4 -2 22 27
41 63 19 37 40 74 46 82 6 8 29 49 51 90 95 175 206 367 225 387 12 13 30 25
40 29 10 3 15 10 12 16 -4 6 -2 8 4 5 5 -4 21 -3 34 3 28 12 116 5 154 -12z
m1622 -1942 c42 -22 71 -53 93 -101 31 -70 13 -184 -35 -224 -9 -7 -13 -17
-10 -22 3 -5 2 -9 -3 -7 -11 2 -286 -134 -295 -147 -4 -5 -8 -7 -8 -3 0 4 -48
-17 -107 -46 -60 -29 -127 -62 -150 -73 -23 -11 -40 -22 -38 -25 3 -3 -1 -5
-8 -5 -13 0 -63 -23 -482 -229 -121 -59 -222 -108 -225 -109 -27 -9 -107 -50
-112 -59 -4 -6 -8 -8 -8 -4 0 3 -89 -38 -197 -91 -109 -54 -201 -99 -205 -100
-4 -1 -81 -38 -170 -82 -90 -44 -179 -88 -198 -97 -19 -9 -43 -23 -52 -31 -10
-8 -18 -11 -18 -8 0 3 -64 -26 -141 -64 -160 -80 -213 -92 -281 -65 -100 39
-151 124 -136 224 13 85 64 145 156 181 17 8 32 17 32 21 0 3 6 7 13 7 6 0
127 57 267 125 140 69 341 167 445 218 105 51 192 95 195 99 3 3 10 6 15 6 13
1 288 135 295 143 3 4 14 9 25 10 11 2 27 9 35 16 8 7 40 23 70 36 30 14 57
27 60 30 3 4 21 12 40 20 66 26 355 172 358 181 2 5 7 7 11 4 5 -2 82 32 172
77 90 45 166 82 169 83 3 1 61 29 130 62 69 33 132 63 140 66 26 11 125 0 158
-17z m-2191 -2030 c12 -3 73 -12 135 -21 118 -17 146 -21 188 -29 14 -3 45 -8
70 -11 25 -3 56 -7 70 -9 14 -3 41 -7 60 -10 19 -3 46 -8 60 -10 14 -3 61 -10
105 -16 86 -12 116 -17 155 -24 14 -3 45 -8 70 -11 25 -3 54 -7 65 -9 11 -2
40 -7 65 -10 25 -3 56 -8 70 -11 14 -3 45 -7 70 -10 25 -2 45 -5 45 -5 0 -2
34 -8 80 -15 22 -3 51 -7 65 -9 58 -10 107 -18 130 -21 43 -5 114 -16 130 -20
8 -2 38 -6 65 -10 28 -3 88 -12 135 -20 47 -8 105 -17 130 -20 25 -3 70 -10
100 -15 30 -6 75 -12 100 -15 25 -4 68 -10 95 -15 28 -5 66 -11 85 -14 19 -3
84 -12 145 -21 60 -9 125 -19 145 -21 83 -11 165 -76 187 -148 14 -46 7 -120
-17 -166 -11 -22 -41 -53 -67 -72 -44 -30 -54 -33 -123 -32 -41 1 -88 4 -105
7 -29 7 -264 44 -335 53 -19 2 -74 11 -122 19 -48 9 -90 15 -95 14 -4 -1 -10
0 -13 1 -9 3 -34 8 -80 14 -25 4 -74 12 -110 17 -36 6 -78 12 -95 14 -27 4
-192 29 -255 39 -39 7 -161 26 -200 31 -19 3 -78 12 -130 20 -122 20 -130 21
-220 34 -103 15 -139 20 -180 27 -50 9 -66 11 -150 24 -41 6 -115 17 -165 25
-49 8 -108 17 -130 20 -22 3 -56 8 -75 11 -19 3 -44 8 -55 9 -11 2 -56 9 -100
15 -44 6 -96 14 -115 17 -19 2 -54 13 -77 23 -23 10 -44 16 -47 14 -3 -2 -4
-2 -2 1 2 3 -11 22 -28 41 -40 45 -57 108 -44 166 5 24 10 50 11 58 1 8 10 21
20 28 9 7 14 18 11 24 -4 6 -2 8 4 4 6 -3 14 0 19 8 4 8 28 24 53 36 36 17 58
20 110 16 36 -3 75 -7 87 -10z"/>
<path d="M10577 14604 c-1 -1 -22 -4 -47 -8 -90 -12 -116 -18 -195 -43 -117
-38 -267 -114 -286 -144 -5 -8 -9 -10 -9 -5 0 16 -119 -82 -181 -149 -56 -60
-80 -91 -101 -125 -12 -19 -25 -37 -28 -40 -16 -12 -59 -97 -53 -103 3 -4 2
-7 -4 -7 -13 0 -46 -76 -79 -178 -23 -72 -27 -91 -44 -212 -13 -87 -3 -266 19
-368 22 -100 80 -254 117 -314 13 -21 24 -42 24 -47 0 -5 3 -11 8 -13 4 -2 21
-23 37 -47 45 -66 111 -137 190 -203 87 -73 112 -90 215 -147 90 -50 224 -93
365 -116 151 -24 393 -4 508 43 15 7 40 15 55 18 53 13 226 111 306 174 27 20
154 147 187 186 50 59 133 205 170 301 11 28 33 106 50 173 31 127 30 359 -2
485 -22 88 -52 175 -60 175 -5 0 -6 6 -4 13 6 15 -84 183 -118 219 -14 15 -23
29 -20 31 8 9 -182 193 -248 240 -131 92 -308 167 -469 198 -54 10 -294 21
-303 13z"/>
</g>
</svg>
