<?xml version="1.0" encoding="UTF-8"?>
<!-- Generator: Adobe Illustrator 18.0.0, SVG Export Plug-In . SVG Version: 6.00 Build 0)  -->
<!DOCTYPE svg PUBLIC "-//W3C//DTD SVG 1.1//EN" "http://www.w3.org/Graphics/SVG/1.1/DTD/svg11.dtd">
<svg version="1.1" id="Calque_1" xmlns="http://www.w3.org/2000/svg" xmlns:xlink="http://www.w3.org/1999/xlink" x="0px" y="0px" width="1800px" height="1000px" viewBox="-150 0 1800 1000" enable-background="new -150 0 1800 1000" xml:space="preserve">
<rect x="-150" fill="none" width="1800" height="1000"/>
<g>
	<circle fill="#FFFFFF" cx="675.2" cy="910.6" r="3.9"/>
	<g>
		<path fill="#FFFFFF" d="M904.5,909.1c1.2,0,2.2,0.4,3,1.2s1.1,1.8,1.1,3.1c0,0.8-0.2,1.5-0.6,2.1c-0.4,0.6-0.9,1.2-1.5,1.6    s-1.3,0.6-2.1,0.6s-1.5-0.2-2.1-0.6s-1.2-0.9-1.5-1.6c-0.4-0.6-0.5-1.4-0.5-2.1c0-0.8,0.2-1.5,0.5-2.2c0.4-0.6,0.9-1.2,1.5-1.6    S903.7,909.1,904.5,909.1 M909.8,897.4c-1.2,0-2.6,0.2-4.1,0.5s-2.9,1-4.1,2c-3.5,2.9-5.2,7.3-5.2,13.2l0,0c0,1.7,0.4,3.1,1.1,4.4    c0.7,1.3,1.7,2.3,2.9,3s2.6,1.1,4.1,1.1c1.4,0,2.8-0.4,4-1.1c1.2-0.7,2.2-1.7,3-3s1.1-2.6,1.1-4.1s-0.3-2.9-1-4.2s-1.6-2.2-2.8-3    c-1.2-0.7-2.7-1.1-4.3-1.1c-0.6,0-1.2,0.1-1.7,0.3c-0.6,0.2-1,0.4-1.3,0.7c0.6-1.5,1.6-2.6,2.9-3.5c0.7-0.4,1.5-0.7,2.3-0.9    c0.9-0.2,1.6-0.3,2.4-0.3c0.7,0,1.1,0,1.1,0L909.8,897.4z M890,920.8v-22.6h-4l-5.6,6.6l2.9,2.5l2.7-3.2v16.6h4L890,920.8    L890,920.8z M864.6,903c0.4-0.6,0.8-1,1.3-1.3s1-0.5,1.6-0.5s1.1,0.2,1.6,0.5s0.9,0.7,1.3,1.3c0.5,0.8,0.8,1.7,1.1,2.8    s0.4,2.4,0.4,3.7s-0.1,2.6-0.4,3.7s-0.6,2.1-1.1,2.8c-0.3,0.6-0.8,1-1.3,1.3s-1,0.5-1.6,0.5c-0.5,0-1.1-0.2-1.6-0.5    s-0.9-0.7-1.3-1.3c-0.5-0.8-0.8-1.7-1.1-2.8s-0.4-2.4-0.4-3.7s0.1-2.5,0.4-3.7C863.8,904.7,864.1,903.7,864.6,903 M867.5,897.4    c-1.7,0-3.2,0.5-4.4,1.6s-2.2,2.5-2.8,4.4s-1,3.9-1,6.1c0,2.3,0.3,4.3,1,6.1s1.6,3.3,2.8,4.4s2.7,1.6,4.4,1.6s3.2-0.5,4.4-1.6    s2.2-2.5,2.8-4.4c0.6-1.8,1-3.9,1-6.1c0-2.3-0.3-4.3-1-6.1c-0.6-1.8-1.6-3.3-2.8-4.4C870.6,897.9,869.2,897.4,867.5,897.4     M839.2,904.2l3.9,0.6c0-1.1,0.3-1.9,0.9-2.6c0.6-0.6,1.4-0.9,2.5-0.9c0.9,0,1.6,0.3,2.2,0.8c0.6,0.5,0.9,1.2,0.9,2.1    c0,1-0.9,2.5-2.7,4.4l-7.8,8.2v3.9h14.5v-3.9h-9.3l5.5-5.7c1.3-1.3,2.2-2.5,2.9-3.6c0.6-1.1,1-2.3,1-3.6c0-1.2-0.3-2.3-0.9-3.3    c-0.6-1-1.5-1.8-2.6-2.4c-1.1-0.6-2.3-0.9-3.6-0.9s-2.5,0.3-3.6,0.9c-1.1,0.6-2,1.4-2.6,2.4C839.6,901.7,839.2,902.9,839.2,904.2     M821.4,902.1v-3.9h-17.5v3.9h6.7v18.6h3.9v-18.6H821.4z M788.4,902.1h3.8c0.9,0,1.6,0.3,2.2,0.9c0.6,0.6,0.9,1.3,0.9,2.2    s-0.3,1.6-0.9,2.3c-0.6,0.6-1.3,1-2.2,1h-3.8V902.1z M792.3,898.2h-7.8v22.6h3.9v-8.6h3.8c1.3,0,2.5-0.3,3.6-0.9    c1.1-0.6,1.9-1.4,2.6-2.5s0.9-2.2,0.9-3.5s-0.3-2.4-0.9-3.5s-1.5-1.9-2.6-2.6S793.5,898.2,792.3,898.2 M777.9,902.1v-3.9h-14.2    v22.6h14.2v-3.9h-10.3v-5.5h8.8v-3.7h-8.8v-5.5L777.9,902.1L777.9,902.1z M747.9,910.8l0.9,0.2c1.2,0.3,2.1,0.6,2.8,0.8    s1.2,0.5,1.7,1c0.5,0.4,0.7,0.9,0.7,1.6c0,1-0.5,1.8-1.4,2.4s-2,0.9-3.3,0.9c-1,0-1.9-0.2-2.7-0.6c-0.8-0.4-1.4-0.9-1.9-1.5    s-0.8-1.1-1-1.6l-3.5,2.2c0.8,1.6,2,2.9,3.4,3.9c1.5,1.1,3.4,1.6,5.6,1.6c1.6,0,3.1-0.3,4.4-1c1.3-0.7,2.4-1.6,3.1-2.7    c0.8-1.1,1.1-2.3,1.1-3.5c0-1.5-0.3-2.7-0.8-3.6s-1.4-1.7-2.5-2.2s-2.5-1-4.2-1.4c-1-0.3-1.9-0.5-2.6-0.7c-0.7-0.2-1.3-0.5-1.9-1    c-0.6-0.4-0.9-1-0.9-1.7c0-0.8,0.4-1.4,1.2-1.9s1.8-0.7,3-0.7c1.9,0,3.3,0.9,4.2,2.8l3.4-2.1c-0.7-1.5-1.7-2.6-3-3.4    c-1.3-0.8-2.9-1.2-4.7-1.2c-1.6,0-3,0.3-4.2,0.9c-1.2,0.6-2.1,1.4-2.8,2.4s-1,2.2-1,3.5c0,1.9,0.6,3.4,1.8,4.4    C744.1,909.5,745.8,910.3,747.9,910.8 M711.5,903c0.4-0.6,0.8-1,1.3-1.3s1-0.5,1.6-0.5s1.1,0.2,1.6,0.5s0.9,0.7,1.3,1.3    c0.5,0.8,0.8,1.7,1.1,2.8s0.4,2.4,0.4,3.7s-0.1,2.6-0.4,3.7s-0.6,2.1-1.1,2.8c-0.3,0.6-0.8,1-1.3,1.3s-1,0.5-1.6,0.5    c-0.5,0-1.1-0.2-1.6-0.5s-0.9-0.7-1.3-1.3c-0.5-0.8-0.8-1.7-1.1-2.8s-0.4-2.4-0.4-3.7s0.1-2.5,0.4-3.7S711,903.7,711.5,903     M714.3,897.4c-1.7,0-3.2,0.5-4.4,1.6s-2.2,2.5-2.8,4.4c-0.6,1.8-1,3.9-1,6.1c0,2.3,0.3,4.3,1,6.1c0.6,1.8,1.6,3.3,2.8,4.4    s2.7,1.6,4.4,1.6s3.2-0.5,4.4-1.6s2.2-2.5,2.8-4.4c0.6-1.8,1-3.9,1-6.1c0-2.3-0.3-4.3-1-6.1c-0.6-1.8-1.6-3.3-2.8-4.4    S716,897.4,714.3,897.4 M686.1,904l3.8,0.6c0-1,0.3-1.8,1-2.4c0.7-0.6,1.5-0.8,2.4-0.8c1.1,0,1.9,0.3,2.5,0.8s0.9,1.3,0.9,2.1    c0,1.1-0.4,1.9-1.1,2.4c-0.8,0.5-2,0.7-3.8,0.7v3.7c1.8,0,3.1,0.3,3.9,0.8s1.3,1.4,1.3,2.7c0,0.8-0.3,1.6-1,2.2s-1.6,0.9-2.7,0.9    c-0.9,0-1.7-0.3-2.4-0.8s-1.1-1.3-1.2-2.4l-3.8,0.6c0.1,1.3,0.4,2.4,1.1,3.4c0.6,1,1.5,1.8,2.6,2.3c1.1,0.6,2.4,0.8,3.8,0.8    c1.5,0,2.8-0.3,4-1c1.1-0.7,2-1.5,2.6-2.6s0.9-2.2,0.9-3.5c0-1.1-0.2-2.1-0.7-3.1c-0.4-1-1.1-1.7-2-2.3c0.7-0.4,1.2-1.1,1.7-2    s0.7-1.9,0.7-2.9c0-1.2-0.3-2.4-0.9-3.4c-0.6-1.1-1.5-1.9-2.6-2.5s-2.4-0.9-3.9-0.9c-1.4,0-2.6,0.3-3.7,0.9    c-1.1,0.6-2,1.4-2.6,2.5C686.4,901.8,686.1,902.8,686.1,904 M652.7,911.9l7.6-13.7H656l-7.8,13.7v3.9h8.6v5h3.9v-5h3.7v-3.9h-3.7    V908h-3.9v3.9H652.7z M642,920.8v-22.6h-4l-5.6,6.6l2.9,2.5l2.7-3.2v16.6h4L642,920.8L642,920.8z M610.4,914.1l-11.3-15.9h-3.9    v22.6h3.9v-15.9l11.3,15.9h3.9v-22.6h-3.9V914.1z M577.5,901.2c1.5,0,2.9,0.4,4.1,1.1c1.3,0.7,2.2,1.7,3,3    c0.7,1.3,1.1,2.6,1.1,4.1s-0.4,2.9-1.1,4.1c-0.7,1.3-1.7,2.3-3,3s-2.6,1.1-4.1,1.1s-2.9-0.4-4.1-1.1c-1.2-0.7-2.2-1.7-3-3    c-0.7-1.3-1.1-2.6-1.1-4.1s0.4-2.9,1.1-4.1c0.7-1.3,1.7-2.3,3-3C574.6,901.6,576,901.2,577.5,901.2 M577.5,897.4    c-2.2,0-4.2,0.5-6.1,1.6c-1.9,1.1-3.3,2.6-4.4,4.4c-1.1,1.9-1.6,3.9-1.6,6.1c0,2.2,0.5,4.2,1.6,6.1c1.1,1.9,2.6,3.3,4.4,4.4    c1.8,1.1,3.9,1.6,6.1,1.6s4.2-0.5,6.1-1.6c1.9-1.1,3.3-2.6,4.4-4.4c1.1-1.9,1.6-3.9,1.6-6.1c0-2.2-0.5-4.2-1.6-6.1    c-1.1-1.9-2.6-3.3-4.4-4.4C581.7,897.9,579.7,897.4,577.5,897.4 M555.4,911.2l8.1-13H559l-5.6,9.1l-5.6-9.1h-4.5l8.1,13v9.5h3.9    v-9.5H555.4z M532.4,916.8v-18.6h-3.9v22.6h13.9v-3.9L532.4,916.8L532.4,916.8z"/>
	</g>
</g>
</svg>